<svg xmlns="http://www.w3.org/2000/svg" style="display: none;"><symbol id="cancel" viewBox="0 0 496.158 496.158"><title>cancel</title><path style="fill:#E04F5F;" d="M496.158,248.085c0-137.021-111.07-248.082-248.076-248.082C111.07,0.003,0,111.063,0,248.085 c0,137.002,111.07,248.07,248.082,248.07C385.088,496.155,496.158,385.087,496.158,248.085z"/><path style="fill:#FFFFFF;" d="M277.042,248.082l72.528-84.196c7.91-9.182,6.876-23.041-2.31-30.951 c-9.172-7.904-23.032-6.876-30.947,2.306l-68.236,79.212l-68.229-79.212c-7.91-9.188-21.771-10.216-30.954-2.306 c-9.186,7.91-10.214,21.77-2.304,30.951l72.522,84.196l-72.522,84.192c-7.91,9.182-6.882,23.041,2.304,30.951 c4.143,3.569,9.241,5.318,14.316,5.318c6.161,0,12.294-2.586,16.638-7.624l68.229-79.212l68.236,79.212 c4.338,5.041,10.47,7.624,16.637,7.624c5.069,0,10.168-1.749,14.311-5.318c9.186-7.91,10.22-21.77,2.31-30.951L277.042,248.082z"/></symbol><symbol id="error" viewBox="0 0 50 50"><title>error</title><circle style="fill:#D75A4A;" cx="25" cy="25" r="25"/><polyline style="fill:none;stroke:#FFFFFF;stroke-width:2;stroke-linecap:round;stroke-miterlimit:10;" points="16,34 25,25 34,16 "/><polyline style="fill:none;stroke:#FFFFFF;stroke-width:2;stroke-linecap:round;stroke-miterlimit:10;" points="16,16 25,25 34,34 "/></symbol><symbol id="arrows-1" viewBox="0 0 476.737 476.737"><title>arrows-1</title><path style="fill:#010002;" d="M238.369,0C106.726,0,0,106.726,0,238.369c0,131.675,106.726,238.369,238.369,238.369 c131.675,0,238.369-106.694,238.369-238.369C476.737,106.726,370.043,0,238.369,0z M397.281,254.26H149.6l68.205,68.205 c6.198,6.166,6.198,16.273,0,22.47c-6.198,6.166-16.273,6.166-22.47,0l-95.347-95.347l-0.095-0.159l-3.305-4.99l-1.24-6.007 v-0.064l1.24-6.07l3.305-4.99l0.127-0.191l95.347-95.347c6.198-6.198,16.273-6.198,22.47,0c6.198,6.198,6.198,16.273,0,22.47 L149.6,222.477h247.681c8.74,0,15.891,7.119,15.891,15.891C413.172,247.109,406.021,254.26,397.281,254.26z"/></symbol><symbol id="arrows" viewBox="0 0 16 16"><title>arrows</title><path fill="#444444" d="M8 0c-4.4 0-8 3.6-8 8s3.6 8 8 8 8-3.6 8-8-3.6-8-8-8zM6.4 9l1.8 1.8-1.4 1.4-4.2-4.2 4.2-4.2 1.4 1.4-1.8 1.8h6.6v2h-6.6z"/></symbol><symbol id="bars-2" viewBox="0 0 44 44"><title>bars-2</title><path d="m22,0c-12.2,0-22,9.8-22,22s9.8,22 22,22 22-9.8 22-22-9.8-22-22-22zm12,31c0,0.6-0.4,1-1,1h-22c-0.6,0-1-0.4-1-1v-2c0-0.6 0.4-1 1-1h22c0.6,0 1,0.4 1,1v2zm0-8c0,0.6-0.4,1-1,1h-22c-0.6,0-1-0.4-1-1v-2c0-0.6 0.4-1 1-1h22c0.6,0 1,0.4 1,1v2zm0-8c0,0.6-0.4,1-1,1h-22c-0.6,0-1-0.4-1-1v-2c0-0.6 0.4-1 1-1h22c0.6,0 1,0.4 1,1v2z"/></symbol><symbol id="bars-1" viewBox="0 0 56 56"><title>bars-1</title><path d="M28,0C12.561,0,0,12.561,0,28s12.561,28,28,28s28-12.561,28-28S43.439,0,28,0z M15,15h26c0.553,0,1,0.448,1,1s-0.447,1-1,1 H15c-0.553,0-1-0.448-1-1S14.447,15,15,15z M41,41H15c-0.553,0-1-0.448-1-1s0.447-1,1-1h26c0.553,0,1,0.448,1,1S41.553,41,41,41z M45,33H11c-0.553,0-1-0.448-1-1s0.447-1,1-1h34c0.553,0,1,0.448,1,1S45.553,33,45,33z M45,25H11c-0.553,0-1-0.448-1-1s0.447-1,1-1 h34c0.553,0,1,0.448,1,1S45.553,25,45,25z"/></symbol><symbol id="menu" viewBox="0 0 54 54"><title>menu</title><circle style="fill:#38454F;" cx="27" cy="27" r="27"/><line style="fill:none;stroke:#FFFFFF;stroke-width:2;stroke-linecap:round;stroke-miterlimit:10;" x1="15" y1="16" x2="39" y2="16"/><line style="fill:none;stroke:#FFFFFF;stroke-width:2;stroke-linecap:round;stroke-miterlimit:10;" x1="15" y1="27" x2="39" y2="27"/><line style="fill:none;stroke:#FFFFFF;stroke-width:2;stroke-linecap:round;stroke-miterlimit:10;" x1="15" y1="38" x2="39" y2="38"/></symbol><symbol id="window-1" viewBox="0 0 15.172 15.172"><title>window-1</title><path style="fill:#030104;" d="M14.203,0H0.969C0.434,0,0,0.433,0,0.969v13.235c0,0.534,0.434,0.968,0.969,0.968h13.234 c0.535,0,0.969-0.434,0.969-0.968V0.968C15.172,0.433,14.738,0,14.203,0z M12.424,11.891H2.748V8.94h9.675L12.424,11.891 L12.424,11.891z"/></symbol><symbol id="square" viewBox="0 0 235.592 235.592"><title>square</title><path d="M117.795,0.002C52.843,0.002,0,52.844,0,117.795C0,182.747,52.843,235.59,117.795,235.59 c64.953,0,117.797-52.843,117.797-117.795C235.592,52.844,182.748,0.002,117.795,0.002z M117.795,220.59 C61.113,220.59,15,174.477,15,117.795C15,61.114,61.113,15.002,117.795,15.002c56.683,0,102.797,46.112,102.797,102.793 C220.592,174.477,174.477,220.59,117.795,220.59z"/><path d="M159.834,68.258H75.758c-4.143,0-7.5,3.357-7.5,7.5v84.076c0,4.143,3.357,7.5,7.5,7.5h84.076c4.143,0,7.5-3.357,7.5-7.5 V75.758C167.334,71.615,163.977,68.258,159.834,68.258z M152.334,152.334H83.258V83.258h69.076V152.334z"/></symbol><symbol id="null" viewBox="0 0 26 26"><title>null</title><rect x="7" y="11" style="fill:#030104;" width="12" height="7"/><path style="fill:#030104;" d="M21.125,0H4.875C2.182,0,0,2.182,0,4.875v16.25C0,23.818,2.182,26,4.875,26h16.25 C23.818,26,26,23.818,26,21.125V4.875C26,2.182,23.818,0,21.125,0z M21,10v9c0,0.551-0.449,1-1,1H6c-0.551,0-1-0.449-1-1v-9V8 c0-0.551,0.449-1,1-1h14c0.551,0,1,0.449,1,1V10z"/></symbol><symbol id="delete" viewBox="0 0 357 357"><title>delete</title><polygon points="357,35.7 321.3,0 178.5,142.8 35.7,0 0,35.7 142.8,178.5 0,321.3 35.7,357 178.5,214.2 321.3,357 357,321.3 214.2,178.5 "/></symbol><symbol id="circle" viewBox="0 0 510 510"><title>circle</title><path d="M255,0C114.75,0,0,114.75,0,255s114.75,255,255,255s255-114.75,255-255S395.25,0,255,0z M382.5,280.5h-102v102h-51v-102 h-102v-51h102v-102h51v102h102V280.5z"/></symbol><symbol id="bars" viewBox="0 0 24 24"><title>bars</title><path d="M24,3c0-0.6-0.4-1-1-1H1C0.4,2,0,2.4,0,3v2c0,0.6,0.4,1,1,1h22c0.6,0,1-0.4,1-1V3z" fill="#6DC230"/><path d="M24,11c0-0.6-0.4-1-1-1H1c-0.6,0-1,0.4-1,1v2c0,0.6,0.4,1,1,1h22c0.6,0,1-0.4,1-1V11z" fill="#6DC230"/><path d="M24,19c0-0.6-0.4-1-1-1H1c-0.6,0-1,0.4-1,1v2c0,0.6,0.4,1,1,1h22c0.6,0,1-0.4,1-1V19z" fill="#6DC230"/></symbol><symbol id="plus-2" viewBox="0 0 330 330"><title>plus-2</title><path d="M281.672,48.328C250.508,17.163,209.073,0,164.999,0C120.927,0,79.492,17.163,48.328,48.328 c-64.333,64.334-64.333,169.011,0,233.345C79.492,312.837,120.927,330,165,330c44.073,0,85.508-17.163,116.672-48.328 C346.005,217.339,346.005,112.661,281.672,48.328z M260.46,260.46C234.961,285.957,201.06,300,165,300 c-36.06,0-69.961-14.043-95.46-39.54c-52.636-52.637-52.636-138.282,0-190.919C95.039,44.042,128.94,30,164.999,30 c36.06,0,69.961,14.042,95.46,39.54C313.095,122.177,313.095,207.823,260.46,260.46z"/><path d="M254.999,150H180V75c0-8.284-6.716-15-15-15s-15,6.716-15,15v75H75c-8.284,0-15,6.716-15,15s6.716,15,15,15h75v75 c0,8.284,6.716,15,15,15s15-6.716,15-15v-75h74.999c8.284,0,15-6.716,15-15S263.284,150,254.999,150z"/></symbol><symbol id="plus-1" viewBox="0 0 281.488 281.488"><title>plus-1</title><path d="M140.744,0C63.138,0,0,63.138,0,140.744s63.138,140.744,140.744,140.744s140.744-63.138,140.744-140.744 S218.351,0,140.744,0z M140.744,263.488C73.063,263.488,18,208.426,18,140.744S73.063,18,140.744,18 s122.744,55.063,122.744,122.744S208.425,263.488,140.744,263.488z"/><path d="M210.913,131.744h-61.168V70.576c0-4.971-4.029-9-9-9s-9,4.029-9,9v61.168H70.576c-4.971,0-9,4.029-9,9s4.029,9,9,9h61.168 v61.168c0,4.971,4.029,9,9,9s9-4.029,9-9v-61.168h61.168c4.971,0,9-4.029,9-9S215.883,131.744,210.913,131.744z"/></symbol><symbol id="closed" viewBox="0 0 142.447 142.447"><title>closed</title><path style="fill:#1D1D1B;" d="M71.224,0C31.951,0,0,31.951,0,71.223s31.951,71.224,71.224,71.224s71.224-31.951,71.224-71.224 S110.496,0,71.224,0z M71.224,127.447C40.222,127.447,15,102.225,15,71.223C15,40.222,40.222,15,71.224,15 s56.224,25.222,56.224,56.223C127.447,102.225,102.226,127.447,71.224,127.447z"/><path style="fill:#1D1D1B;" d="M106.206,36.242c-2.93-2.928-7.678-2.928-10.607,0L71.01,60.83L46.779,36.598 c-2.929-2.928-7.677-2.928-10.607,0c-2.929,2.93-2.929,7.678,0,10.607l24.231,24.231L36.528,95.311 c-2.929,2.93-2.929,7.678,0,10.607c1.465,1.464,3.384,2.196,5.304,2.196c1.919,0,3.839-0.732,5.304-2.196L71.01,82.044 l24.231,24.231c1.465,1.464,3.384,2.196,5.304,2.196c1.919,0,3.839-0.732,5.304-2.196c2.929-2.93,2.929-7.678,0-10.607 L81.618,71.437l24.588-24.588C109.135,43.919,109.135,39.171,106.206,36.242z"/></symbol><symbol id="window" viewBox="0 0 280 280"><title>window</title><path d="M275.455,0H4.545C2.033,0,0,2.035,0,4.544v270.911C0,277.965,2.033,280,4.545,280h270.91c2.51,0,4.545-2.035,4.545-4.544 V4.544C280,2.035,277.965,0,275.455,0z M230.371,227H49.629v-30h180.742V227z"/></symbol><symbol id="diminish" viewBox="0 0 281.488 281.488"><title>diminish</title><path d="M140.744,0C63.138,0,0,63.138,0,140.744s63.138,140.744,140.744,140.744s140.744-63.138,140.744-140.744 S218.351,0,140.744,0z M140.744,263.488C73.063,263.488,18,208.426,18,140.744S73.063,18,140.744,18 s122.744,55.063,122.744,122.744S208.425,263.488,140.744,263.488z"/><path d="M210.913,131.744H70.576c-4.971,0-9,4.029-9,9s4.029,9,9,9h140.337c4.971,0,9-4.029,9-9S215.883,131.744,210.913,131.744z"/></symbol><symbol id="minimize" viewBox="0 0 496 496"><title>minimize</title><path style="fill:#82CC00;" d="M496,320.8c0,96.8-78.4,175.2-175.2,175.2H175.2C78.4,496,0,417.6,0,320.8V175.2 C0,78.4,78.4,0,175.2,0h145.6C417.6,0,496,78.4,496,175.2V320.8z"/><path style="fill:#5FBF02;" d="M0,175.2C0,78.4,78.4,0,175.2,0h145.6C417.6,0,496,78.4,496,175.2v145.6 c0,96.8-78.4,175.2-175.2,175.2"/><g> <path style="fill:#3EB500;" d="M320.8,0C417.6,0,496,78.4,496,175.2v145.6c0,96.8-78.4,175.2-175.2,175.2"/> <path style="fill:#3EB500;" d="M340.8,368H155.2c-6.4,0-12-5.6-12-12s5.6-12,12-12h185.6c6.4,0,12,5.6,12,12S347.2,368,340.8,368z"/> </g><path style="fill:#FFFFFF;" d="M340.8,352H155.2c-6.4,0-12-5.6-12-12s5.6-12,12-12h185.6c6.4,0,12,5.6,12,12S347.2,352,340.8,352z"/></symbol><symbol id="add" viewBox="0 0 42 42"><title>add</title><line style="fill:none;stroke:#23A24D;stroke-width:2;stroke-miterlimit:10;" x1="21" y1="0" x2="21" y2="42"/><line style="fill:none;stroke:#23A24D;stroke-width:2;stroke-miterlimit:10;" x1="42" y1="21" x2="0" y2="21"/></symbol><symbol id="plus" viewBox="0 0 50 50"><title>plus</title><circle style="fill:#43B05C;" cx="25" cy="25" r="25"/><line style="fill:none;stroke:#FFFFFF;stroke-width:2;stroke-linecap:round;stroke-linejoin:round;stroke-miterlimit:10;" x1="25" y1="13" x2="25" y2="38"/><line style="fill:none;stroke:#FFFFFF;stroke-width:2;stroke-linecap:round;stroke-linejoin:round;stroke-miterlimit:10;" x1="37.5" y1="25" x2="12.5" y2="25"/></symbol><symbol id="success" viewBox="0 0 50 50"><title>success</title><circle style="fill:#25AE88;" cx="25" cy="25" r="25"/><polyline style="fill:none;stroke:#FFFFFF;stroke-width:2;stroke-linecap:round;stroke-linejoin:round;stroke-miterlimit:10;" points=" 38,15 22,33 12,25 "/></symbol></svg>